<svg width="128px" height="128px" xmlns="http://www.w3.org/2000/svg">
  <style>
    .graphic { fill: #007d32; }
    .canvas { fill: none; }
    @media (prefers-color-scheme: dark) {
      .graphic { fill: #ffffff; }
      .canvas { fill: #007d32; }
    }
  </style>
  <path class="canvas" d="M16 0 C7.164 0 0 7.164 0 16 L0 112 C0 120.836 7.164 128 16 128 L112 128 C120.836 128 128 120.836 128 112 L128 16 C128 7.164 120.836 0 112 0 Z"/>
  <path class="graphic" d="M69.858 84.358 C69.858 81.374 70.412 78.601 71.522 76.038 72.631 73.475 74.161 71.218 76.112 69.267 78.063 67.316 80.32 65.786 82.883 64.676 85.447 63.567 88.22 63.012 91.204 63.012 94.188 63.012 96.961 63.567 99.524 64.676 102.087 65.786 104.345 67.316 106.296 69.267 108.247 71.218 109.777 73.475 110.886 76.038 111.995 78.601 112.55 81.374 112.55 84.358 112.55 87.342 111.995 90.116 110.886 92.679 109.777 95.242 108.247 97.499 106.296 99.45 104.345 101.401 102.087 102.931 99.524 104.041 96.961 105.15 94.188 105.705 91.204 105.705 88.22 105.705 85.447 105.15 82.883 104.041 80.32 102.931 78.063 101.401 76.112 99.45 74.161 97.499 72.631 95.242 71.522 92.679 70.412 90.116 69.858 87.342 69.858 84.358 Z M101.533 84.358 C101.533 81.451 100.538 79.003 98.549 77.013 96.56 75.024 94.111 74.03 91.204 74.03 88.297 74.03 85.848 75.024 83.859 77.013 81.87 79.003 80.875 81.451 80.875 84.358 80.875 87.266 81.87 89.714 83.859 91.703 85.848 93.693 88.297 94.687 91.204 94.687 94.111 94.687 96.56 93.693 98.549 91.703 100.538 89.714 101.533 87.266 101.533 84.358 Z M15 43.043 C15 40.059 15.555 37.286 16.664 34.723 17.773 32.159 19.304 29.902 21.255 27.951 23.206 26 25.463 24.47 28.026 23.361 30.589 22.251 33.362 21.697 36.346 21.697 39.33 21.697 42.104 22.251 44.667 23.361 47.23 24.47 49.487 26 51.438 27.951 53.389 29.902 54.919 32.159 56.028 34.723 57.138 37.286 57.693 40.059 57.693 43.043 57.693 46.027 57.138 48.8 56.028 51.363 54.919 53.927 53.389 56.184 51.438 58.135 49.487 60.086 47.23 61.616 44.667 62.725 42.104 63.835 39.33 64.389 36.346 64.389 33.362 64.389 30.589 63.835 28.026 62.725 25.463 61.616 23.206 60.086 21.255 58.135 19.304 56.184 17.773 53.927 16.664 51.363 15.555 48.8 15 46.027 15 43.043 Z M46.675 43.043 C46.675 40.136 45.681 37.687 43.691 35.698 41.702 33.709 39.254 32.714 36.346 32.714 33.439 32.714 30.991 33.709 29.001 35.698 27.012 37.687 26.017 40.136 26.017 43.043 26.017 45.95 27.012 48.399 29.001 50.388 30.991 52.377 33.439 53.372 36.346 53.372 39.254 53.372 41.702 52.377 43.691 50.388 45.681 48.399 46.675 45.95 46.675 43.043 Z M82.826 19.401 L92.352 23.762 44.609 108 35.084 103.639 82.826 19.401 Z"/>
</svg>
